<svg version="1.1" viewBox="0.0 0.0 3840.0 2880.0" fill="none" stroke="none" stroke-linecap="square" stroke-miterlimit="10" xmlns:xlink="http://www.w3.org/1999/xlink" xmlns="http://www.w3.org/2000/svg"><clipPath id="g19cac850d91_0_0.0"><path d="m0 0l3840.0 0l0 2880.0l-3840.0 0l0 -2880.0z" clip-rule="nonzero"/></clipPath><g clip-path="url(#g19cac850d91_0_0.0)"><path fill="#000000" fill-opacity="0.0" d="m0 0l3840.0 0l0 2880.0l-3840.0 0z" fill-rule="evenodd"/><path fill="#ff9900" d="m1804.3031 1520.7008l0 0c0 -93.83618 76.069336 -169.90552 169.90552 -169.90552l0 0c45.061768 0 88.277954 17.900635 120.14148 49.76416c31.863281 31.863403 49.76416 75.07959 49.76416 120.14136l0 0c0 93.83618 -76.069336 169.90552 -169.90564 169.90552l0 0c-93.83618 0 -169.90552 -76.069336 -169.90552 -169.90552z" fill-rule="evenodd"/><path fill="#ff9900" d="m1911.9155 1219.0981l0 0c80.055786 -16.53479 163.40088 -0.56311035 231.67236 44.395874l-54.692627 83.052124l0 0c-46.226562 -30.441772 -102.659546 -41.256226 -156.86523 -30.060547z" fill-rule="evenodd"/><path fill="#ff9900" d="m1931.7257 1308.3176l-50.973755 -225.13391l29.734863 -339.82153l101.94495 -254.86874l8.496094 -293.0971l199.64563 131.6824l59.469727 535.22046l-140.17578 407.78748z" fill-rule="evenodd"/><path fill="#ff9900" d="m2259.3892 1622.8309l0 0c-25.745361 77.583984 -81.279785 141.74927 -154.36768 178.35876l-44.5354 -88.91113l0 0c49.488037 -24.78833 87.09033 -68.23462 104.52246 -120.76672z" fill-rule="evenodd"/><path fill="#ff9900" d="m2172.2046 1595.3676l220.42798 68.523926l279.33813 195.79114l169.65234 215.8003l249.51196 154.02148l-213.91333 106.95947l-493.1526 -216.33545l-282.91846 -325.42102z" fill-rule="evenodd"/><path fill="#ff9900" d="m1749.345 1730.5405l0 0c-54.347412 -61.062866 -82.18811 -141.22766 -77.38818 -222.83215l99.271484 5.8391113l0 0c-3.25 55.254395 15.60083 109.533936 52.399536 150.87976z" fill-rule="evenodd"/><path fill="#ff9900" d="m1816.6702 1668.7524l-169.47913 156.7102l-309.15283 144.1604l-271.68884 39.150024l-258.07007 139.19104l14.214111 -238.73438l433.766 -319.11108l423.2318 -82.501465z" fill-rule="evenodd"/></g></svg>